# Wavefront OBJ file
# Exported by Misfit Model 3D 1.3.8
# Wed Nov 09 08:02:01 2016

mtllib copcar.mtl

# 72 Vertices
v -5.369497 2.219205 -13.541183
v 5.399989 2.219211 -13.55994
v 5.158875 5.655368 -11.968809
v -5.131957 5.65538 -11.95087
v 5.317649 6.442832 6.47141
v -5.332199 6.442826 6.48999
v 3.824584 9.377882 4.058493
v -3.833722 9.377893 4.071875
v -5.317612 6.442835 -6.471434
v 5.332204 6.442824 -6.489985
v 3.833733 9.377884 -4.071843
v -3.824563 9.377888 -4.058479
v 5.131979 5.655365 11.950885
v -5.158869 5.583775 11.968814
v -3.531185 9.377896 1.066631
v -3.112043 10.093768 0.771331
v 3.110317 10.093764 0.760509
v 3.528813 9.377892 1.054308
v -3.5294 9.377895 -0.524104
v 3.530608 9.377883 -0.536398
v 3.111535 10.093751 -0.300012
v -3.110825 10.093754 -0.289143
v 5.369592 2.219209 13.482285
v -5.399952 2.219196 13.55994
v -5.872911 2.219204 8.494074
v -5.875247 2.219189 10.556125
v -5.87448 0.644287 9.908023
v -5.872911 0.000012 8.494074
v -5.871257 0.644283 7.021172
v -5.870585 2.219192 6.431993
v -5.853852 2.219201 -8.473587
v -5.851511 2.219198 -10.535659
v -5.852177 0.64429 -9.946501
v -5.853852 0.0 -8.473587
v -5.855426 0.644293 -7.059641
v -5.856093 2.219189 -6.470483
v 5.853868 2.219192 8.473623
v 5.851537 2.219199 10.535701
v 5.852183 0.644276 9.94653
v 5.853868 0.000009 8.473623
v 5.855448 0.644289 7.059656
v 5.856183 2.219196 6.411559
v -4.058932 2.219204 -8.476742
v -4.058932 0.000017 -8.476742
v -4.060507 0.644296 -7.062772
v -4.061184 2.219194 -6.473621
v -4.057268 0.644287 -9.949638
v -4.056612 2.219188 -10.538779
v 5.872927 2.219205 -8.494063
v 5.875247 2.219195 -10.556075
v 5.874601 0.644281 -9.966953
v 5.872927 0.000001 -8.494063
v 5.871352 0.644294 -7.080069
v 5.870691 2.219198 -6.490908
v 4.118781 2.219199 8.476649
v 4.116461 2.21921 10.538685
v 4.11718 0.644293 9.890627
v 4.118781 0.000015 8.476649
v 4.120407 0.644288 7.003779
v 4.121085 2.219199 6.414603
v 4.14016 2.219201 -10.553097
v 4.137845 2.219201 -8.491033
v 4.139509 0.644291 -9.963906
v 4.137845 0.000005 -8.491033
v 4.136254 0.644284 -7.077049
v 4.135588 2.219204 -6.487891
v -4.080322 2.219202 10.552973
v -4.078001 2.219206 8.490913
v -4.079655 0.644293 9.963816
v -4.078001 0.000009 8.490913
v -4.076416 0.644283 7.07695
v -4.075671 2.219207 6.428859

# 342 Texture Coordinates
vt 0.99493 0.99005
vt 0.005 0.99005
vt 0.98322 0.44904
vt 0.01672 0.44904
vt 0.98322 0.44904
vt 0.005 0.99005
vt 0.00043 1.43359
vt 0.99823 1.43359
vt 0.99823 0.99921
vt 0.99823 0.99921
vt 0.00092 0.99921
vt 0.00043 1.43359
vt 0.99823 1.43359
vt 0.00043 1.43359
vt 0.99823 0.99921
vt 0.00092 0.99921
vt 0.99823 0.99921
vt 0.00043 1.43359
vt 0.99976 0.44189
vt 0.99023 0.48425
vt -0.00604 0.44226
vt 0.01166 0.48425
vt -0.00604 0.44226
vt 0.99023 0.48425
vt 0.59515 0.61853
vt 0.59515 0.77783
vt 0.43585 0.61853
vt 0.43585 0.77783
vt 0.43585 0.61853
vt 0.59515 0.77783
vt 0.99426 0.44843
vt 0.99432 0.47925
vt 0.00574 0.44879
vt 0.00653 0.48035
vt 0.00574 0.44879
vt 0.99432 0.47925
vt 0.17859 0.57593
vt 0.17932 0.58728
vt 0.16864 0.57593
vt 0.16797 0.58728
vt 0.16864 0.57593
vt 0.17932 0.58728
vt 0.16797 0.58728
vt 0.17932 0.58728
vt 0.16864 0.57593
vt 0.17859 0.57593
vt 0.16864 0.57593
vt 0.17932 0.58728
vt 0.16797 0.58728
vt 0.17932 0.58728
vt 0.16797 0.58728
vt 0.17932 0.58728
vt 0.16797 0.58728
vt 0.17932 0.58728
vt 0.16864 0.57593
vt 0.16797 0.58728
vt 0.16864 0.57593
vt 0.16797 0.58728
vt 0.16864 0.57593
vt 0.16797 0.58728
vt 0.17859 0.57593
vt 0.16864 0.57593
vt 0.17859 0.57593
vt 0.16864 0.57593
vt 0.17859 0.57593
vt 0.16864 0.57593
vt 0.17932 0.58728
vt 0.17859 0.57593
vt 0.17932 0.58728
vt 0.17859 0.57593
vt 0.17932 0.58728
vt 0.17859 0.57593
vt 0.99457 0.9856
vt 0.00537 0.98615
vt 0.99707 0.44727
vt 0.00244 0.4458
vt 0.99707 0.44727
vt 0.00537 0.98615
vt 0.9903 0.23169
vt 0.71008 0.74628
vt 0.22876 0.31262
vt 0.4444 0.73663
vt 0.71008 0.74628
vt 0.52954 0.91437
vt 0.52954 0.91437
vt 0.71008 0.74628
vt 0.71002 0.98889
vt 0.71002 0.98889
vt 0.71008 0.74628
vt 0.8905 0.91437
vt 0.8905 0.91437
vt 0.71008 0.74628
vt 0.96588 0.76794
vt 0.71008 0.74628
vt 0.4444 0.73663
vt 0.22876 0.31262
vt 0.4444 0.73663
vt 0.00049 0.73755
vt 0.22876 0.31262
vt 0.96588 0.76794
vt 0.71008 0.74628
vt 0.9903 0.23169
vt 0.71008 0.74628
vt 0.9903 0.23169
vt 0.22876 0.31262
vt 0.71008 0.74628
vt 0.4444 0.73663
vt 0.52954 0.91437
vt 0.71008 0.74628
vt 0.52954 0.91437
vt 0.71002 0.98889
vt 0.71008 0.74628
vt 0.71002 0.98889
vt 0.8905 0.91437
vt 0.71008 0.74628
vt 0.8905 0.91437
vt 0.96588 0.76794
vt 0.4444 0.73663
vt 0.71008 0.74628
vt 0.22876 0.31262
vt 0.00049 0.73755
vt 0.4444 0.73663
vt 0.22876 0.31262
vt 0.71008 0.74628
vt 0.96588 0.76794
vt 0.9903 0.23169
vt 0.71008 0.74628
vt 0.9903 0.23169
vt 0.22876 0.31262
vt 0.71008 0.74628
vt 0.4444 0.73663
vt 0.52954 0.91437
vt 0.71008 0.74628
vt 0.52954 0.91437
vt 0.71002 0.98889
vt 0.71008 0.74628
vt 0.71002 0.98889
vt 0.8905 0.91437
vt 0.71008 0.74628
vt 0.8905 0.91437
vt 0.96588 0.76794
vt 0.4444 0.73663
vt 0.71008 0.74628
vt 0.22876 0.31262
vt 0.71008 0.74628
vt 0.96588 0.76794
vt 0.9903 0.23169
vt 0.71002 0.98889
vt 0.71008 0.74628
vt 0.8905 0.91437
vt 0.8905 0.91437
vt 0.71008 0.74628
vt 0.96588 0.76794
vt 0.5293 0.91455
vt 0.71008 0.74628
vt 0.71002 0.98889
vt 0.44434 0.73682
vt 0.71008 0.74628
vt 0.5293 0.91455
vt 0.49316 0.92725
vt 0.58398 0.86328
vt 0.49316 0.86328
vt 0.58398 0.92773
vt 0.58398 0.86328
vt 0.49316 0.92725
vt 0.00049 0.73755
vt 0.4444 0.73663
vt 0.22876 0.31262
vt 0.9903 0.23169
vt 0.71008 0.74628
vt 0.22876 0.31262
vt 0.4444 0.73663
vt 0.71008 0.74628
vt 0.52954 0.91437
vt 0.52954 0.91437
vt 0.71008 0.74628
vt 0.71002 0.98889
vt 0.71002 0.98889
vt 0.71008 0.74628
vt 0.8905 0.91437
vt 0.8905 0.91437
vt 0.71008 0.74628
vt 0.96588 0.76794
vt 0.71008 0.74628
vt 0.4444 0.73663
vt 0.22876 0.31262
vt 0.4444 0.73663
vt 0.00049 0.73755
vt 0.22876 0.31262
vt 0.96588 0.76794
vt 0.71008 0.74628
vt 0.9903 0.23169
vt 0.4444 0.73663
vt 0.71008 0.74628
vt 0.52954 0.91437
vt 0.52954 0.91437
vt 0.71008 0.74628
vt 0.71002 0.98889
vt 0.71002 0.98889
vt 0.71008 0.74628
vt 0.8905 0.91437
vt 0.8905 0.91437
vt 0.71008 0.74628
vt 0.96588 0.76794
vt 0.71008 0.74628
vt 0.4444 0.73663
vt 0.52954 0.91437
vt 0.71008 0.74628
vt 0.52954 0.91437
vt 0.71002 0.98889
vt 0.71008 0.74628
vt 0.71002 0.98889
vt 0.8905 0.91437
vt 0.71008 0.74628
vt 0.8905 0.91437
vt 0.96588 0.76794
vt 0.71008 0.74628
vt 0.4444 0.73663
vt 0.52954 0.91437
vt 0.71008 0.74628
vt 0.52954 0.91437
vt 0.71002 0.98889
vt 0.71008 0.74628
vt 0.71002 0.98889
vt 0.8905 0.91437
vt 0.71008 0.74628
vt 0.8905 0.91437
vt 0.96588 0.76794
vt 0.49347 0.95374
vt 0.58417 0.92731
vt 0.49347 0.92719
vt 0.58417 0.95374
vt 0.58417 0.92731
vt 0.49347 0.95374
vt 0.49347 0.92731
vt 0.58417 0.95374
vt 0.49347 0.95374
vt 0.58417 0.92731
vt 0.58417 0.95374
vt 0.49347 0.92731
vt 0.49347 0.86322
vt 0.58417 0.92731
vt 0.49347 0.92731
vt 0.58417 0.86322
vt 0.58417 0.92731
vt 0.49347 0.86322
vt 0.58417 0.86304
vt 0.49347 0.92719
vt 0.49347 0.86322
vt 0.58417 0.86304
vt 0.58417 0.92712
vt 0.49347 0.92719
vt 0.58417 0.92712
vt 0.49347 0.95361
vt 0.49347 0.92719
vt 0.58417 0.92712
vt 0.58417 0.95355
vt 0.49347 0.95361
vt 0.58417 0.95355
vt 0.49347 0.92731
vt 0.49347 0.95361
vt 0.58417 0.95355
vt 0.58417 0.92712
vt 0.49347 0.92731
vt 0.58417 0.92712
vt 0.49347 0.8631
vt 0.49347 0.92731
vt 0.58417 0.92712
vt 0.58417 0.86304
vt 0.49347 0.8631
vt 0.49347 0.92731
vt 0.58417 0.86322
vt 0.49347 0.86322
vt 0.58417 0.92731
vt 0.58417 0.86322
vt 0.49347 0.92731
vt 0.49347 0.95374
vt 0.58417 0.92731
vt 0.49347 0.92731
vt 0.58417 0.95374
vt 0.58417 0.92731
vt 0.49347 0.95374
vt 0.49347 0.92731
vt 0.58417 0.95374
vt 0.49347 0.95374
vt 0.58417 0.92731
vt 0.58417 0.95374
vt 0.49347 0.92731
vt 0.49347 0.86322
vt 0.58417 0.92731
vt 0.49347 0.92731
vt 0.58417 0.86322
vt 0.58417 0.92731
vt 0.49347 0.86322
vt 0.58417 0.86304
vt 0.49347 0.92719
vt 0.49347 0.8631
vt 0.58417 0.86304
vt 0.58417 0.92712
vt 0.49347 0.92719
vt 0.58417 0.92712
vt 0.49347 0.95361
vt 0.49347 0.92719
vt 0.58417 0.92712
vt 0.58417 0.95355
vt 0.49347 0.95361
vt 0.58417 0.95355
vt 0.49347 0.92719
vt 0.49347 0.95361
vt 0.58417 0.95355
vt 0.58417 0.92712
vt 0.49347 0.92719
vt 0.58417 0.92712
vt 0.49347 0.8631
vt 0.49347 0.92719
vt 0.58417 0.92712
vt 0.58417 0.86304
vt 0.49347 0.8631
vt 0.99878 0.41193
vt 0.00067 0.41193
vt 0.81415 0.00055
vt 0.1853 0.00055
vt 0.81415 0.00055
vt 0.00067 0.41193
vt 0.99945 0.99872
vt 0.00049 0.99951
vt 0.00067 0.41193
vt 0.99878 0.41193
vt 0.99945 0.99872
vt 0.00067 0.41193
vt 0.99878 0.41193
vt 0.00067 0.41193
vt 0.81415 0.00055
vt 0.1853 0.00055
vt 0.81415 0.00055
vt 0.00067 0.41193
vt 0.99945 0.99872
vt 0.00049 0.99951
vt 0.00067 0.41193
vt 0.99878 0.41193
vt 0.99945 0.99872
vt 0.00067 0.41193

# 342 Vertex Normals
vn 0.630824 0.362051 -0.68628
vn -0.406876 0.40669 -0.817958
vn 0.588511 0.663768 -0.461591
vn -0.78991 0.511205 -0.338692
vn 0.588511 0.663768 -0.461591
vn -0.406876 0.40669 -0.817958
vn -0.814385 0.524634 0.248065
vn 0.726294 0.653771 0.212323
vn 0.45066 0.802771 0.390467
vn 0.45066 0.802771 0.390467
vn -0.269075 0.934451 0.233237
vn -0.814385 0.524634 0.248065
vn 0.872794 0.465677 -0.146201
vn -0.649751 0.690775 -0.317261
vn 0.215149 0.902216 -0.373788
vn -0.557029 0.794511 -0.241809
vn 0.215149 0.902216 -0.373788
vn -0.649751 0.690775 -0.317261
vn 0.872794 0.465677 -0.146201
vn 0.588511 0.663768 -0.461591
vn -0.649751 0.690775 -0.317261
vn -0.78991 0.511205 -0.338692
vn -0.649751 0.690775 -0.317261
vn 0.588511 0.663768 -0.461591
vn 0.45066 0.802771 0.390467
vn 0.215149 0.902216 -0.373788
vn -0.269075 0.934451 0.233237
vn -0.557029 0.794511 -0.241809
vn -0.269075 0.934451 0.233237
vn 0.215149 0.902216 -0.373788
vn 0.789823 0.509016 0.342173
vn 0.726294 0.653771 0.212323
vn -0.587988 0.66248 0.464101
vn -0.814385 0.524634 0.248065
vn -0.587988 0.66248 0.464101
vn 0.726294 0.653771 0.212323
vn -0.558362 0.773936 0.298757
vn -0.396839 -0.33874 0.853097
vn 0.224881 0.847762 0.480342
vn 0.864278 0.195293 0.463556
vn 0.224881 0.847762 0.480342
vn -0.396839 -0.33874 0.853097
vn 0.494055 -0.678072 -0.544176
vn -0.653182 0.239957 -0.718174
vn 0.468665 0.716852 -0.516213
vn -0.279226 0.909818 -0.307025
vn 0.468665 0.716852 -0.516213
vn -0.653182 0.239957 -0.718174
vn 0.864278 0.195293 0.463556
vn -0.396839 -0.33874 0.853097
vn 0.494055 -0.678072 -0.544176
vn -0.653182 0.239957 -0.718174
vn 0.494055 -0.678072 -0.544176
vn -0.396839 -0.33874 0.853097
vn 0.224881 0.847762 0.480342
vn 0.864278 0.195293 0.463556
vn 0.468665 0.716852 -0.516213
vn 0.494055 -0.678072 -0.544176
vn 0.468665 0.716852 -0.516213
vn 0.864278 0.195293 0.463556
vn -0.558362 0.773936 0.298757
vn 0.224881 0.847762 0.480342
vn -0.279226 0.909818 -0.307025
vn 0.468665 0.716852 -0.516213
vn -0.279226 0.909818 -0.307025
vn 0.224881 0.847762 0.480342
vn -0.396839 -0.33874 0.853097
vn -0.558362 0.773936 0.298757
vn -0.653182 0.239957 -0.718174
vn -0.279226 0.909818 -0.307025
vn -0.653182 0.239957 -0.718174
vn -0.558362 0.773936 0.298757
vn -0.628192 0.368959 0.685014
vn 0.407219 0.403215 0.819506
vn -0.587988 0.66248 0.464101
vn 0.789823 0.509016 0.342173
vn -0.587988 0.66248 0.464101
vn 0.407219 0.403215 0.819506
vn -0.814385 0.524634 0.248065
vn -0.997528 0.069921 0.006941
vn -0.587988 0.66248 0.464101
vn -0.9406 -0.008998 0.339397
vn -0.997528 0.069921 0.006941
vn -0.897388 -0.16828 0.407894
vn -0.897388 -0.16828 0.407894
vn -0.997528 0.069921 0.006941
vn -0.999999 0.0 -0.001116
vn -0.999999 0.0 -0.001116
vn -0.997528 0.069921 0.006941
vn -0.999999 0.000002 -0.001125
vn -0.999999 0.000002 -0.001125
vn -0.997528 0.069921 0.006941
vn -0.996426 0.08446 -0.001123
vn -0.997528 0.069921 0.006941
vn -0.991688 0.118063 0.051148
vn -0.587988 0.66248 0.464101
vn -0.824271 -0.104719 0.556427
vn -0.628192 0.368959 0.685014
vn -0.587988 0.66248 0.464101
vn -0.996426 0.08446 -0.001123
vn -0.997528 0.069921 0.006941
vn -0.814385 0.524634 0.248065
vn -0.997565 0.069172 -0.008879
vn -0.649751 0.690775 -0.317261
vn -0.78991 0.511205 -0.338692
vn -0.997565 0.069172 -0.008879
vn -0.991858 0.11563 -0.053354
vn -0.999999 -0.000001 -0.001136
vn -0.997565 0.069172 -0.008879
vn -0.999999 -0.000001 -0.001136
vn -0.999999 -0.0 -0.001125
vn -0.997565 0.069172 -0.008879
vn -0.999999 -0.0 -0.001125
vn -0.999999 -0.000003 -0.001116
vn -0.997565 0.069172 -0.008879
vn -0.999999 -0.000003 -0.001116
vn -0.995477 0.094991 -0.001116
vn -0.991858 0.11563 -0.053354
vn -0.997565 0.069172 -0.008879
vn -0.78991 0.511205 -0.338692
vn -0.406876 0.40669 -0.817958
vn -0.820353 -0.098693 -0.563276
vn -0.78991 0.511205 -0.338692
vn -0.997565 0.069172 -0.008879
vn -0.995477 0.094991 -0.001116
vn -0.649751 0.690775 -0.317261
vn 0.997565 0.06917 0.008881
vn 0.726294 0.653771 0.212323
vn 0.789823 0.509016 0.342173
vn 0.997565 0.06917 0.008881
vn 0.991853 0.115196 0.054383
vn 0.999999 -0.000006 0.001137
vn 0.997565 0.06917 0.008881
vn 0.999999 -0.000006 0.001137
vn 0.999999 -0.0 0.001131
vn 0.997565 0.06917 0.008881
vn 0.999999 -0.0 0.001131
vn 0.897483 -0.168198 -0.407718
vn 0.997565 0.06917 0.008881
vn 0.897483 -0.168198 -0.407718
vn 0.974631 -0.000243 -0.223818
vn 0.991853 0.115196 0.054383
vn 0.997565 0.06917 0.008881
vn 0.789823 0.509016 0.342173
vn 0.997565 0.06917 0.008881
vn 0.995477 0.094992 0.001118
vn 0.726294 0.653771 0.212323
vn 0.999999 -0.0 0.001122
vn 0.999999 0.000003 0.001123
vn 0.999999 0.000005 0.001119
vn 0.999999 0.000005 0.001119
vn 0.999999 0.000003 0.001123
vn 0.999999 0.000009 0.001124
vn 0.999999 0.000002 0.001127
vn 0.999999 0.000003 0.001123
vn 0.999999 -0.0 0.001122
vn 0.999999 0.000004 0.001125
vn 0.999999 0.000003 0.001123
vn 0.999999 0.000002 0.001127
vn -0.001423 -0.579494 -0.814975
vn -0.422217 -0.2413 -0.873789
vn -0.00163 -0.350368 -0.936611
vn -0.001088 -0.782277 -0.62293
vn -0.422217 -0.2413 -0.873789
vn -0.001423 -0.579494 -0.814975
vn 0.407219 0.403215 0.819506
vn 0.937414 -0.002232 0.348209
vn 0.789823 0.509016 0.342173
vn 0.872794 0.465677 -0.146201
vn 0.997582 0.069181 -0.006639
vn 0.588511 0.663768 -0.461591
vn 0.991968 0.115677 -0.051162
vn 0.997582 0.069181 -0.006639
vn 0.999999 0.000005 0.001131
vn 0.999999 0.000005 0.001131
vn 0.997582 0.069181 -0.006639
vn 0.999999 -0.0 0.001125
vn 0.999999 -0.0 0.001125
vn 0.997582 0.069181 -0.006639
vn 0.999999 0.000001 0.001115
vn 0.999999 0.000001 0.001115
vn 0.997582 0.069181 -0.006639
vn 0.996426 0.084465 0.001115
vn 0.997582 0.069181 -0.006639
vn 0.991968 0.115677 -0.051162
vn 0.588511 0.663768 -0.461591
vn 0.938305 -0.001762 -0.345805
vn 0.630824 0.362051 -0.68628
vn 0.588511 0.663768 -0.461591
vn 0.996426 0.084465 0.001115
vn 0.997582 0.069181 -0.006639
vn 0.872794 0.465677 -0.146201
vn -0.717924 -0.265176 0.643636
vn -0.999999 0.000005 -0.00112
vn -0.897488 -0.168182 0.407713
vn -0.897488 -0.168182 0.407713
vn -0.999999 0.000005 -0.00112
vn -0.999999 -0.0 -0.001118
vn -0.999999 -0.0 -0.001118
vn -0.999999 0.000005 -0.00112
vn -0.999999 0.000006 -0.001111
vn -0.999999 0.000006 -0.001111
vn -0.999999 0.000005 -0.00112
vn -0.999999 0.000013 -0.001117
vn -0.999999 -0.000002 -0.001126
vn -0.999999 -0.000007 -0.001123
vn -0.999999 -0.000003 -0.001126
vn -0.999999 -0.000002 -0.001126
vn -0.999999 -0.000003 -0.001126
vn -0.999999 0.0 -0.001128
vn -0.999999 -0.000002 -0.001126
vn -0.999999 0.0 -0.001128
vn -0.999999 -0.000001 -0.001126
vn -0.999999 -0.000002 -0.001126
vn -0.999999 -0.000001 -0.001126
vn -0.999999 -0.000001 -0.001127
vn 0.999999 -0.000001 0.001125
vn 0.999999 0.000002 0.001125
vn 0.999999 0.000001 0.001124
vn 0.999999 -0.000001 0.001125
vn 0.999999 0.000001 0.001124
vn 0.999999 0.0 0.001122
vn 0.999999 -0.000001 0.001125
vn 0.999999 0.0 0.001122
vn 0.897389 -0.16827 -0.407894
vn 0.999999 -0.000001 0.001125
vn 0.897389 -0.16827 -0.407894
vn 0.717554 -0.265341 -0.64398
vn -0.000238 -0.990195 -0.139692
vn -0.001088 -0.782277 -0.62293
vn -0.001423 -0.579494 -0.814975
vn 0.000277 -0.987957 0.154731
vn -0.001088 -0.782277 -0.62293
vn -0.000238 -0.990195 -0.139692
vn 0.001107 -0.775676 0.63113
vn 0.000277 -0.987957 0.154731
vn -0.000238 -0.990195 -0.139692
vn 0.001429 -0.575672 0.817679
vn 0.000277 -0.987957 0.154731
vn 0.001107 -0.775676 0.63113
vn 0.001636 -0.350376 0.936608
vn 0.001429 -0.575672 0.817679
vn 0.001107 -0.775676 0.63113
vn 0.001638 -0.350378 0.936607
vn 0.001429 -0.575672 0.817679
vn 0.001636 -0.350376 0.936608
vn -0.431625 -0.252454 0.866006
vn -0.014131 -0.588588 0.80831
vn 0.001647 -0.350375 0.936608
vn -0.690752 -0.202481 0.694164
vn -0.587779 -0.635619 0.500505
vn -0.014131 -0.588588 0.80831
vn -0.014397 -0.785191 0.619086
vn -0.004505 -0.989435 0.144911
vn -0.014131 -0.588588 0.80831
vn -0.014397 -0.785191 0.619086
vn 0.004502 -0.989435 -0.144905
vn -0.004505 -0.989435 0.144911
vn 0.004502 -0.989435 -0.144905
vn 0.014394 -0.785191 -0.619086
vn -0.004505 -0.989435 0.144911
vn 0.004502 -0.989435 -0.144905
vn 0.014134 -0.58859 -0.808308
vn 0.014394 -0.785191 -0.619086
vn 0.014134 -0.58859 -0.808308
vn 0.45714 -0.325263 -0.827784
vn 0.58778 -0.635618 -0.500504
vn 0.014134 -0.58859 -0.808308
vn -0.001632 -0.350386 -0.936604
vn 0.013551 -0.365483 -0.930719
vn -0.001421 -0.579494 -0.814975
vn -0.001628 -0.350374 -0.936609
vn 0.65999 -0.142015 -0.737729
vn -0.001096 -0.782277 -0.62293
vn -0.001628 -0.350374 -0.936609
vn -0.001421 -0.579494 -0.814975
vn -0.000249 -0.990194 -0.139697
vn -0.001096 -0.782277 -0.62293
vn -0.001421 -0.579494 -0.814975
vn 0.00027 -0.987958 0.154723
vn -0.001096 -0.782277 -0.62293
vn -0.000249 -0.990194 -0.139697
vn 0.001101 -0.775681 0.631124
vn 0.00027 -0.987958 0.154723
vn -0.000249 -0.990194 -0.139697
vn 0.001425 -0.575677 0.817676
vn 0.00027 -0.987958 0.154723
vn 0.001101 -0.775681 0.631124
vn 0.00163 -0.350375 0.936608
vn 0.001425 -0.575677 0.817676
vn 0.001101 -0.775681 0.631124
vn 0.001627 -0.350373 0.936609
vn 0.001425 -0.575677 0.817676
vn 0.00163 -0.350375 0.936608
vn -0.014093 -0.365469 0.930717
vn -0.014688 -0.58858 0.808305
vn 0.659207 -0.142458 0.738344
vn -0.457528 -0.325173 0.827605
vn -0.588078 -0.635448 0.50037
vn -0.014688 -0.58858 0.808305
vn -0.014941 -0.785186 0.619079
vn -0.004674 -0.989435 0.144903
vn -0.014688 -0.58858 0.808305
vn -0.014941 -0.785186 0.619079
vn 0.004665 -0.989434 -0.14491
vn -0.004674 -0.989435 0.144903
vn 0.004665 -0.989434 -0.14491
vn 0.014927 -0.785187 -0.619079
vn -0.004674 -0.989435 0.144903
vn 0.004665 -0.989434 -0.14491
vn 0.014664 -0.588586 -0.808302
vn 0.014927 -0.785187 -0.619079
vn 0.014664 -0.588586 -0.808302
vn 0.457508 -0.325193 -0.827609
vn 0.588066 -0.635455 -0.500376
vn 0.014664 -0.588586 -0.808302
vn -0.001644 -0.350384 -0.936605
vn 0.014066 -0.365483 -0.930712
vn 0.726294 0.653771 0.212323
vn 0.872794 0.465677 -0.146201
vn 0.45066 0.802771 0.390467
vn 0.215149 0.902216 -0.373788
vn 0.45066 0.802771 0.390467
vn 0.872794 0.465677 -0.146201
vn 0.995477 0.094992 0.001118
vn 0.996426 0.084465 0.001115
vn 0.872794 0.465677 -0.146201
vn 0.726294 0.653771 0.212323
vn 0.995477 0.094992 0.001118
vn 0.872794 0.465677 -0.146201
vn -0.649751 0.690775 -0.317261
vn -0.814385 0.524634 0.248065
vn -0.557029 0.794511 -0.241809
vn -0.269075 0.934451 0.233237
vn -0.557029 0.794511 -0.241809
vn -0.814385 0.524634 0.248065
vn -0.995477 0.094991 -0.001116
vn -0.996426 0.08446 -0.001123
vn -0.814385 0.524634 0.248065
vn -0.649751 0.690775 -0.317261
vn -0.995477 0.094991 -0.001116
vn -0.814385 0.524634 0.248065

# DrawCall_32, 8 grouped triangles

usemtl pcar_back
o DrawCall_32
g DrawCall_32

f 2/1/1 1/2/2 3/3/3
f 4/4/4 3/5/5 1/6/6
f 6/7/7 5/8/8 7/9/9
f 7/10/10 8/11/11 6/12/12
f 10/13/13 9/14/14 11/15/15
f 12/16/16 11/17/17 9/18/18
f 10/19/19 3/20/20 9/21/21
f 4/22/22 9/23/23 3/24/24
# DrawCall_35, 18 grouped triangles

usemtl pcar_front
o DrawCall_35
g DrawCall_35

f 7/25/25 11/26/26 8/27/27
f 12/28/28 8/29/29 11/30/30
f 13/31/31 5/32/32 14/33/33
f 6/34/34 14/35/35 5/36/36
f 16/37/37 15/38/38 17/39/39
f 18/40/40 17/41/41 15/42/42
f 20/43/43 19/44/44 21/45/45
f 22/46/46 21/47/47 19/48/48
f 18/49/49 15/50/50 20/51/51
f 19/52/52 20/53/53 15/54/54
f 17/55/55 18/56/56 21/57/57
f 20/58/58 21/59/59 18/60/60
f 16/61/61 17/62/62 22/63/63
f 21/64/64 22/65/65 17/66/66
f 15/67/67 16/68/68 19/69/69
f 22/70/70 19/71/71 16/72/72
f 24/73/73 23/74/74 14/75/75
f 13/76/76 14/77/77 23/78/78
# DrawCall_36, 80 grouped triangles

usemtl pcar_wheels
o DrawCall_36
g DrawCall_36

f 6/79/79 25/80/80 14/81/81
f 26/82/82 25/83/83 27/84/84
f 27/85/85 25/86/86 28/87/87
f 28/88/88 25/89/89 29/90/90
f 29/91/91 25/92/92 30/93/93
f 25/94/94 26/95/95 14/96/96
f 26/97/97 24/98/98 14/99/99
f 30/100/100 25/101/101 6/102/102
f 31/103/103 9/104/104 4/105/105
f 31/106/106 32/107/107 33/108/108
f 31/109/109 33/110/110 34/111/111
f 31/112/112 34/113/113 35/114/114
f 31/115/115 35/116/116 36/117/117
f 32/118/118 31/119/119 4/120/120
f 1/121/121 32/122/122 4/123/123
f 31/124/124 36/125/125 9/126/126
f 37/127/127 5/128/128 13/129/129
f 37/130/130 38/131/131 39/132/132
f 37/133/133 39/134/134 40/135/135
f 37/136/136 40/137/137 41/138/138
f 37/139/139 41/140/140 42/141/141
f 38/142/142 37/143/143 13/144/144
f 37/145/145 42/146/146 5/147/147
f 44/148/148 43/149/149 45/150/150
f 45/151/151 43/152/152 46/153/153
f 47/154/154 43/155/155 44/156/156
f 48/157/157 43/158/158 47/159/159
f 47/160/160 32/161/161 48/162/162
f 33/163/163 32/164/164 47/165/165
f 23/166/166 38/167/167 13/168/168
f 10/169/169 49/170/170 3/171/171
f 50/172/172 49/173/173 51/174/174
f 51/175/175 49/176/176 52/177/177
f 52/178/178 49/179/179 53/180/180
f 53/181/181 49/182/182 54/183/183
f 49/184/184 50/185/185 3/186/186
f 50/187/187 2/188/188 3/189/189
f 54/190/190 49/191/191 10/192/192
f 56/193/193 55/194/194 57/195/195
f 57/196/196 55/197/197 58/198/198
f 58/199/199 55/200/200 59/201/201
f 59/202/202 55/203/203 60/204/204
f 62/205/205 61/206/206 63/207/207
f 62/208/208 63/209/209 64/210/210
f 62/211/211 64/212/212 65/213/213
f 62/214/214 65/215/215 66/216/216
f 68/217/217 67/218/218 69/219/219
f 68/220/220 69/221/221 70/222/222
f 68/223/223 70/224/224 71/225/225
f 68/226/226 71/227/227 72/228/228
f 44/229/229 33/230/230 47/231/231
f 34/232/232 33/233/233 44/234/234
f 45/235/235 34/236/236 44/237/237
f 35/238/238 34/239/239 45/240/240
f 46/241/241 35/242/242 45/243/243
f 36/244/244 35/245/245 46/246/246
f 26/247/247 69/248/248 67/249/249
f 26/250/250 27/251/251 69/252/252
f 27/253/253 70/254/254 69/255/255
f 27/256/256 28/257/257 70/258/258
f 28/259/259 71/260/260 70/261/261
f 28/262/262 29/263/263 71/264/264
f 29/265/265 72/266/266 71/267/267
f 29/268/268 30/269/269 72/270/270
f 51/271/271 61/272/272 50/273/273
f 63/274/274 61/275/275 51/276/276
f 52/277/277 63/278/278 51/279/279
f 64/280/280 63/281/281 52/282/282
f 53/283/283 64/284/284 52/285/285
f 65/286/286 64/287/287 53/288/288
f 54/289/289 65/290/290 53/291/291
f 66/292/292 65/293/293 54/294/294
f 56/295/295 39/296/296 38/297/297
f 56/298/298 57/299/299 39/300/300
f 57/301/301 40/302/302 39/303/303
f 57/304/304 58/305/305 40/306/306
f 58/307/307 41/308/308 40/309/309
f 58/310/310 59/311/311 41/312/312
f 59/313/313 42/314/314 41/315/315
f 59/316/316 60/317/317 42/318/318
# DrawCall_37, 4 grouped triangles

usemtl pcar_doorleft
o DrawCall_37
g DrawCall_37

f 5/319/319 10/320/320 7/321/321
f 11/322/322 7/323/323 10/324/324
f 42/325/325 54/326/326 10/327/327
f 5/328/328 42/329/329 10/330/330
# DrawCall_38, 4 grouped triangles

usemtl pcar_doorright
o DrawCall_38
g DrawCall_38

f 9/331/331 6/332/332 12/333/333
f 8/334/334 12/335/335 6/336/336
f 36/337/337 30/338/338 6/339/339
f 9/340/340 36/341/341 6/342/342
